<svg width="24" height="24" viewBox="0 0 24 24" fill="none" xmlns="http://www.w3.org/2000/svg">
<path d="M4.70594 0.00601196C2.12073 0.00601196 0.00488281 2.1218 0.00488281 4.70706V19.2952C0.00488281 21.8805 2.12068 23.9955 4.70594 23.9955H19.2942C21.8794 23.9955 23.9944 21.8805 23.9944 19.2952V4.70706C23.9944 2.12185 21.8794 0.00601196 19.2942 0.00601196H4.70594ZM5.88833 3.96476C7.12788 3.96476 7.89139 4.77851 7.91496 5.84816C7.91496 6.8942 7.12783 7.73082 5.86435 7.73082H5.84109C4.62513 7.73082 3.8392 6.89425 3.8392 5.84816C3.8392 4.77853 4.64892 3.96476 5.8883 3.96476H5.88833ZM16.5703 8.9642C18.9542 8.9642 20.7412 10.5223 20.7412 13.8707V20.1214H17.1184V14.2898C17.1184 12.8243 16.594 11.8245 15.2829 11.8245C14.282 11.8245 13.6854 12.4984 13.4235 13.1494C13.3278 13.3823 13.3043 13.7075 13.3043 14.0333V20.1214H9.68141C9.68141 20.1214 9.72896 10.2427 9.68141 9.21985H13.305V10.7636C13.7865 10.0208 14.6476 8.96418 16.5703 8.96418V8.9642ZM4.0529 9.22064H7.67578V20.1215H4.0529V9.22064V9.22064Z" fill="#FF9900"/>
</svg>
